<svg xmlns="http://www.w3.org/2000/svg" xmlns:svg="http://www.w3.org/2000/svg" id="svg8" width="25.593" height="25.594" version="1.1" viewBox="0 0 6.772 6.772"><defs id="defs2"><style id="current-color-scheme" type="text/css"/><style id="current-color-scheme-2" type="text/css"/><style id="current-color-scheme-23" type="text/css"/><style id="current-color-scheme-2-7" type="text/css"/></defs><metadata id="metadata5"/><g id="layer1" transform="translate(-277.13952,-80.861424)"><g id="layer1-8" transform="translate(-157.63268,-51.740836)"><g id="layer1-6-7" transform="matrix(0.26458333,0,0,0.26458333,114.64049,-138.86605)"><circle style="fill:none;fill-opacity:1;stroke:#000;stroke-width:1.76100004;stroke-linejoin:round;stroke-miterlimit:4;stroke-dasharray:none;stroke-opacity:1" id="path2985-9" cx="10.733" cy="11.362" r="10.038" transform="translate(0.28410543,1029.983)"/></g><path id="path41" d="m 124.52448,133.31227 a 2.8764881,2.8764881 0 0 0 -2.87631,2.87631 2.8764881,2.8764881 0 0 0 2.87631,2.87683 2.8764881,2.8764881 0 0 0 2.87631,-2.87683 2.8764881,2.8764881 0 0 0 -2.87631,-2.87631 z m 0,0.46768 a 2.4087665,2.4087665 0 0 1 2.40863,2.40863 2.4087665,2.4087665 0 0 1 -2.40863,2.40864 2.4087665,2.4087665 0 0 1 -2.40864,-2.40864 2.4087665,2.4087665 0 0 1 2.40864,-2.40863 z" style="fill:#fff;fill-opacity:1;fill-rule:nonzero;stroke-width:.26784974"/></g><path id="path102" d="m 278.29951,81.161424 c -0.47515,1e-4 -0.86022,0.38431 -0.85999,0.85805 10e-5,0.47354 0.38507,0.85739 0.85999,0.85748 0.0852,-2.9e-4 0.17001,-0.0132 0.25146,-0.0384 l 3.86819,3.90867 h -1.07935 -0.87983 -0.0974 c -0.30235,0.0805 -0.33355,0.48102 0.021,0.58523 0.31593,8.7e-4 0.63709,-6e-5 0.95627,0 0.56198,9e-5 1.12389,5.9e-4 1.68379,5.9e-4 h 0.0163 0.31796 c 0.0828,-0.005 0.22113,-0.0712 0.25322,-0.2484 v -1.74114 -0.87725 -0.0971 c -0.0807,-0.30144 -0.48241,-0.33257 -0.58694,0.021 -8.9e-4,0.31501 7e-5,0.63523 0,0.95346 h -10e-4 v 0.93718 l -3.91894,-3.96045 c 0.0364,-0.0962 0.0552,-0.198 0.0555,-0.30076 2.4e-4,-0.47375 -0.38483,-0.85796 -0.85998,-0.85805 z" style="fill:#fff;fill-opacity:1;fill-rule:nonzero;stroke-width:.54969352"/></g></svg>