<svg xmlns="http://www.w3.org/2000/svg" xmlns:svg="http://www.w3.org/2000/svg" id="svg8" width="24.01" height="24.012" version="1.1" viewBox="0 0 6.353 6.353"><defs id="defs2"><style id="current-color-scheme" type="text/css"/><style id="current-color-scheme-2" type="text/css"/><style id="current-color-scheme-23" type="text/css"/><style id="current-color-scheme-2-7" type="text/css"/><style id="current-color-scheme-8" type="text/css"/><style id="current-color-scheme-2-9" type="text/css"/></defs><metadata id="metadata5"/><g id="layer1" transform="translate(-275.65869,-65.790145)"><g id="layer1-8" transform="translate(-157.63268,-51.740836)"><g id="layer1-6-7" transform="matrix(0.26458333,0,0,0.26458333,114.64049,-138.86605)"><circle style="fill:none;fill-opacity:1;stroke:#000;stroke-width:1.76100004;stroke-linejoin:round;stroke-miterlimit:4;stroke-dasharray:none;stroke-opacity:1" id="path2985-9" cx="10.733" cy="11.362" r="10.038" transform="translate(0.28410543,1029.983)"/></g><path id="path41" d="m 124.52448,133.31227 a 2.8764881,2.8764881 0 0 0 -2.87631,2.87631 2.8764881,2.8764881 0 0 0 2.87631,2.87683 2.8764881,2.8764881 0 0 0 2.87631,-2.87683 2.8764881,2.8764881 0 0 0 -2.87631,-2.87631 z m 0,0.46768 a 2.4087665,2.4087665 0 0 1 2.40863,2.40863 2.4087665,2.4087665 0 0 1 -2.40863,2.40864 2.4087665,2.4087665 0 0 1 -2.40864,-2.40864 2.4087665,2.4087665 0 0 1 2.40864,-2.40863 z" style="fill:#fff;fill-opacity:1;fill-rule:nonzero;stroke-width:.26784974"/></g><path id="path41-9" d="m 278.835,66.090145 a 2.8764881,2.8764881 0 0 0 -2.87631,2.87631 2.8764881,2.8764881 0 0 0 2.87631,2.87683 2.8764881,2.8764881 0 0 0 2.87631,-2.87683 2.8764881,2.8764881 0 0 0 -2.87631,-2.87631 z m 0,0.46768 a 2.4087665,2.4087665 0 0 1 2.40863,2.40863 2.4087665,2.4087665 0 0 1 -2.40863,2.40864 2.4087665,2.4087665 0 0 1 -2.40864,-2.40864 2.4087665,2.4087665 0 0 1 2.40864,-2.40863 z" style="fill:#fff;fill-opacity:1;fill-rule:nonzero;stroke-width:.26784974"/></g></svg>