<svg xmlns="http://www.w3.org/2000/svg" xmlns:svg="http://www.w3.org/2000/svg" id="svg8" width="26.268" height="26.268" version="1.1" viewBox="0 0 6.95 6.95"><defs id="defs2"><style id="current-color-scheme" type="text/css"/><style id="current-color-scheme-2" type="text/css"/><style id="current-color-scheme-23" type="text/css"/><style id="current-color-scheme-2-7" type="text/css"/><style id="current-color-scheme-8" type="text/css"/><style id="current-color-scheme-2-9" type="text/css"/><style id="current-color-scheme-5" type="text/css"/></defs><metadata id="metadata5"/><g id="layer1" transform="translate(-278.36912,-67.517683)"><g id="layer1-8" transform="translate(-157.63268,-51.740836)"><g id="layer1-6-7" transform="matrix(0.26458333,0,0,0.26458333,114.64049,-138.86605)"><circle style="fill:none;fill-opacity:1;stroke:#000;stroke-width:1.76100004;stroke-linejoin:round;stroke-miterlimit:4;stroke-dasharray:none;stroke-opacity:1" id="path2985-9" cx="10.733" cy="11.362" r="10.038" transform="translate(0.28410543,1029.983)"/></g><path id="path41" d="m 124.52448,133.31227 a 2.8764881,2.8764881 0 0 0 -2.87631,2.87631 2.8764881,2.8764881 0 0 0 2.87631,2.87683 2.8764881,2.8764881 0 0 0 2.87631,-2.87683 2.8764881,2.8764881 0 0 0 -2.87631,-2.87631 z m 0,0.46768 a 2.4087665,2.4087665 0 0 1 2.40863,2.40863 2.4087665,2.4087665 0 0 1 -2.40863,2.40864 2.4087665,2.4087665 0 0 1 -2.40864,-2.40864 2.4087665,2.4087665 0 0 1 2.40864,-2.40863 z" style="fill:#fff;fill-opacity:1;fill-rule:nonzero;stroke-width:.26784974"/></g><path id="path997" d="m 282.4987,73.337683 c 0.53922,-0.65749 1.46023,-1.7989 1.46023,-1.7989 l -0.84693,-0.68183 c 0,0 -0.62997,0.77682 -1.44885,1.78541 -0.95039,1.17104 -2.61964,-0.53129 -1.47082,-1.47109 1.00541,-0.82206 1.78514,-1.44859 1.78514,-1.44859 l -0.68157,-0.84667 c 0,0 -1.14088,0.92181 -1.7989,1.45971 -0.58684,0.47969 -0.82788,1.04696 -0.82788,1.59623 0,1.15861 1.07209,2.23573 2.2307,2.23573 0.54822,0 1.11628,-0.24156 1.59888,-0.83 z m 1.0414,-1.75366 -0.37439,0.46541 -0.38364,-0.30824 0.37491,-0.4662 z m -2.28944,-2.2897 0.30877,0.38338 -0.4662,0.37492 -0.30824,-0.38365 z m 2.54291,1.66687 1.14247,-0.762 -0.41672,-0.1688 0.4998,-0.6387 -1.16972,0.73765 0.45402,0.18389 z m -1.92934,-1.90129 1.30069,-0.44106 -0.35877,-0.27041 0.6477,-0.53075 -1.32054,0.45297 0.39105,0.29474 z" style="fill:#fff;fill-opacity:.97247709;stroke:#000;stroke-width:0;stroke-miterlimit:4;stroke-dasharray:none;stroke-opacity:1"/></g></svg>