<svg xmlns="http://www.w3.org/2000/svg" xmlns:svg="http://www.w3.org/2000/svg" id="svg8" width="23.901" height="23.937" version="1.1" viewBox="0 0 6.324 6.333"><defs id="defs2"><style id="current-color-scheme" type="text/css"/><style id="current-color-scheme-2" type="text/css"/><style id="current-color-scheme-23" type="text/css"/><style id="current-color-scheme-2-7" type="text/css"/><style id="current-color-scheme-8" type="text/css"/><style id="current-color-scheme-2-9" type="text/css"/><style id="current-color-scheme-5" type="text/css"/></defs><metadata id="metadata5"/><g id="layer1" transform="translate(-259.64281,-101.02197)"><g id="layer1-8" transform="translate(-157.63268,-51.740836)"><g id="layer1-6-7" transform="matrix(0.26458333,0,0,0.26458333,114.64049,-138.86605)"><circle style="fill:none;fill-opacity:1;stroke:#000;stroke-width:1.76100004;stroke-linejoin:round;stroke-miterlimit:4;stroke-dasharray:none;stroke-opacity:1" id="path2985-9" cx="10.733" cy="11.362" r="10.038" transform="translate(0.28410543,1029.983)"/></g><path id="path41" d="m 124.52448,133.31227 a 2.8764881,2.8764881 0 0 0 -2.87631,2.87631 2.8764881,2.8764881 0 0 0 2.87631,2.87683 2.8764881,2.8764881 0 0 0 2.87631,-2.87683 2.8764881,2.8764881 0 0 0 -2.87631,-2.87631 z m 0,0.46768 a 2.4087665,2.4087665 0 0 1 2.40863,2.40863 2.4087665,2.4087665 0 0 1 -2.40863,2.40864 2.4087665,2.4087665 0 0 1 -2.40864,-2.40864 2.4087665,2.4087665 0 0 1 2.40864,-2.40863 z" style="fill:#fff;fill-opacity:1;fill-rule:nonzero;stroke-width:.26784974"/></g><g id="layer1-5" transform="translate(603.73925,-102.85299)"><g id="layer1-6" transform="matrix(0.26458333,0,0,0.26458333,-343.84321,-68.48758)"><ellipse style="fill:#fff;fill-opacity:1;stroke:none" id="path2985" cx="1.705" cy="1.608" rx="2.873" ry="3.03" transform="translate(1.3447646,1031.9585)"/><path style="fill:none;fill-opacity:1;stroke:#feffff;stroke-width:2.5;stroke-linecap:butt;stroke-linejoin:miter;stroke-miterlimit:4;stroke-dasharray:none;stroke-opacity:1" id="path3765" d="M 19.445436,19.613515 3.1819805,3.173282 v 0" transform="translate(0,1030.3622)"/><ellipse style="fill:#fffffe;fill-opacity:1;stroke:none;stroke-opacity:1" id="path2985-7" cx="1.705" cy="1.608" rx="2.873" ry="3.03" transform="translate(17.232868,1047.5672)"/></g></g></g></svg>