<svg xmlns="http://www.w3.org/2000/svg" xmlns:svg="http://www.w3.org/2000/svg" id="svg8" width="36.882" height="36.882" version="1.1" viewBox="0 0 9.758 9.758"><metadata id="metadata5"/><g id="layer1" transform="translate(327.4179,-132.92051)"><g id="surface1" transform="matrix(0.35277779,0,0,0.35277779,-326.4179,133.92051)" style="fill:#fff"><path id="path4579" d="m 21.992188,10.996094 c 0,6.0625 -4.933594,10.996094 -10.996094,10.996094 C 4.933594,21.992188 0,17.058594 0,10.996094 h 1.941406 c 0,4.992187 4.0625,9.058594 9.054688,9.058594 4.992187,0 9.054687,-4.066407 9.054687,-9.058594 0,-4.992188 -4.0625,-9.054688 -9.054687,-9.054688 -2.195313,0 -4.292969,0.789063 -5.941406,2.222656 L 7.035156,6.144531 0.882812,7.125 1.867188,0.976562 l 1.8125,1.8125 C 5.699219,0.992188 8.285156,0 10.996094,0 c 6.0625,0 10.996094,4.933594 10.996094,10.996094 z M 17.671875,10.835938 11,4.164062 4.328125,10.835938 11,17.503906 Z m 0,0" style="fill:#fff;fill-opacity:1;fill-rule:nonzero;stroke:none;stroke-opacity:.92744482"/></g></g></svg>