<svg xmlns="http://www.w3.org/2000/svg" xmlns:svg="http://www.w3.org/2000/svg" id="svg8" width="21.929" height="23.433" version="1.1" viewBox="0 0 5.802 6.2"><metadata id="metadata5"/><g id="layer1" transform="translate(331.56022,-382.23811)"><g id="layer1-6" transform="matrix(0.26458333,0,0,0.26458333,-331.61788,109.81561)" style="fill:#fff;fill-opacity:1"><g id="text2985" style="font-style:normal;font-variant:normal;font-weight:400;font-stretch:normal;font-size:28px;line-height:125%;font-family:'URW Bookman L';-inkscape-font-specification:'URW Bookman L';text-align:start;letter-spacing:0;word-spacing:0;writing-mode:lr-tb;text-anchor:start;fill:#fff;fill-opacity:1;stroke:#313131;stroke-width:1;stroke-linecap:round;stroke-linejoin:round;stroke-miterlimit:1;stroke-dasharray:none;stroke-opacity:1"><path id="path3006" d="M 19.480701,1032.2986 H 3.2407015 l -1.596,4.928 0.924,0.336 c 1.6519983,-2.912 3.5840026,-4.2 6.16,-4.2 0.9239991,0 1.232,0.28 1.232,1.12 v 12.852 c 0,2.268 -0.4200014,2.968 -1.82,3.08 l -1.092,0.084 v 0.868 h 8.6239995 v -0.868 l -1.092,-0.084 c -1.399998,-0.112 -1.82,-0.812 -1.82,-3.08 v -12.74 c 0,-0.98 0.224001,-1.232 1.148,-1.232 2.463998,0 4.592002,1.456 6.16,4.2 l 0.98,-0.336 -1.568,-4.928" style="line-height:125%;font-family:'URW Bookman L';-inkscape-font-specification:'URW Bookman L';fill:#fff;fill-opacity:1;stroke:#313131;stroke-width:1;stroke-linecap:round;stroke-linejoin:round;stroke-miterlimit:1;stroke-dasharray:none;stroke-opacity:1"/></g><flowRoot style="font-style:normal;font-weight:400;line-height:.01%;font-family:'Bitstream Vera Sans';letter-spacing:0;word-spacing:0;fill:#fff;fill-opacity:1;stroke:none;stroke-width:1px;stroke-linecap:butt;stroke-linejoin:miter;stroke-opacity:1" id="flowRoot2989" xml:space="preserve"><flowRegion id="flowRegion2991" style="fill:#fff;fill-opacity:1"><rect id="rect2993" width="387.5" height="400" x="-3.125" y="-921.75" style="fill:#fff;fill-opacity:1"/></flowRegion><flowPara style="font-size:40px;line-height:1.25;fill:#fff;fill-opacity:1" id="flowPara2995"/></flowRoot><flowRoot style="font-style:normal;font-weight:400;line-height:.01%;font-family:'Bitstream Vera Sans';letter-spacing:0;word-spacing:0;fill:#fff;fill-opacity:1;stroke:none;stroke-width:1px;stroke-linecap:butt;stroke-linejoin:miter;stroke-opacity:1" id="flowRoot2997" xml:space="preserve"><flowRegion id="flowRegion2999" style="fill:#fff;fill-opacity:1"><rect id="rect3001" width="50.195" height="41.016" x="-11.719" y="-5.148" style="fill:#fff;fill-opacity:1"/></flowRegion><flowPara style="font-size:40px;line-height:1.25;fill:#fff;fill-opacity:1" id="flowPara3003"/></flowRoot></g></g></svg>