<svg xmlns="http://www.w3.org/2000/svg" xmlns:svg="http://www.w3.org/2000/svg" id="svg3844" width="22" height="22" version="1.1" viewBox="0 0 22 22"><defs id="defs3848"><linearGradient id="linearGradient4421" x1="55" x2="115" y1="156" y2="196" gradientTransform="matrix(8.4623226,0,0,8.7104945,-314.07845,-201.28831)" gradientUnits="userSpaceOnUse"><stop style="stop-color:#dd0" id="stop4377" offset="0"/><stop style="stop-color:#a8a800" id="stop4379" offset="1"/></linearGradient><linearGradient id="linearGradient4425" x1="60" x2="165" y1="96" y2="96" gradientTransform="matrix(8.4623226,0,0,8.7104945,-314.07845,-201.28831)" gradientUnits="userSpaceOnUse"><stop style="stop-color:#fff;stop-opacity:.098039" id="stop4407" offset="0"/><stop style="stop-color:#fff;stop-opacity:.19608" id="stop4409" offset="1"/></linearGradient></defs><g id="g4415" transform="matrix(0.11817087,0,0,0.11480405,-2.8850772,-2.8912901)"><path style="fill:url(#linearGradient4421)" id="rect3854" d="m 160,26 35,35 -80,135 c -5,-1 -59,-38 -60,-40 z"/><path style="fill:#fff;fill-opacity:1" id="rect4385" d="m 55,156 60,40 c 0,0 -20,-5 -40,10 -6.6667,5 -29.287,2.1458 -25,-5 15,-25 5,-45 5,-45 z"/><path style="fill:red" id="rect4388" d="m 50,201 25,5 -10,10 -25,0 z"/><path style="fill:url(#linearGradient4425)" id="path4399" d="m 160,31 5,5 c 0,0 -90,115 -95,125 0,0 -10,0 -10,-5 z"/></g><metadata id="metadata20"/></svg>