<svg xmlns="http://www.w3.org/2000/svg" xmlns:svg="http://www.w3.org/2000/svg" xmlns:xlink="http://www.w3.org/1999/xlink" style="fill-rule:evenodd" id="svg2" width="22" height="22" version="1.1" viewBox="0 0 22 22" xml:space="preserve"><metadata id="metadata45"/><defs id="defs4"><linearGradient id="linearGradient3838"><stop style="stop-color:#4bc73e;stop-opacity:1" id="stop3840" offset="0"/><stop id="stop3846" offset=".227" style="stop-color:#aeff84;stop-opacity:1"/><stop style="stop-color:#07950a;stop-opacity:1" id="stop3848" offset=".614"/><stop style="stop-color:#00840a;stop-opacity:1" id="stop3842" offset="1"/></linearGradient><style id="style6" type="text/css">.str0{stroke:#00923f;stroke-width:3}.fil2{fill:none}.fil0{fill:#00a43b}.fil1{fill:#fefefc}</style><linearGradient id="linearGradient3844" x1="202.844" x2="200.446" y1="67.237" y2="355.447" gradientUnits="userSpaceOnUse" xlink:href="#linearGradient3838"/></defs><circle id="circle11" cx="200" cy="212" r="147" class="fil0 str0" transform="matrix(0.07405443,0,0,0.07405443,-3.803184,-4.6923842)" style="fill:url(#linearGradient3844);stroke:#00923f;stroke-width:2.997795;fill-opacity:1;stroke-miterlimit:4;stroke-dasharray:none"/><path id="path13" d="M 10.637431,1.4541337 C 13.525554,2.56495 15.302861,4.4163109 16.339622,6.7860529 15.821241,9.2298481 13.96988,11.08121 10.711485,12.414189 L 10.637432,9.9703936 C 8.1195805,10.933101 6.1941653,12.710408 5.0092944,15.376366 5.972002,18.11638 8.1195805,19.671523 10.711487,20.708286 L 10.78554,18.11638 C 15.895295,17.820163 19.005581,14.413659 19.375853,9.3039032 19.82018,4.1941475 14.63637,-2.3226423 5.6757831,2.3427866 1.0844083,4.7865827 -1.8037139,13.006625 4.1946945,19.005034 -1.1372244,12.710408 2.861715,4.2682016 10.637431,4.0460391 l 0,-2.5919054 z" class="fil1 str0" style="fill:#fefefc;stroke:#fff;stroke-width:.1;stroke-opacity:1;stroke-miterlimit:4;stroke-dasharray:none"/><rect style="fill:none" id="rect41" width="400" height="368" x="0" y="-346" class="fil2"/></svg>