<svg xmlns="http://www.w3.org/2000/svg" xmlns:svg="http://www.w3.org/2000/svg" id="svg41" width="22" height="22" version="1.1" viewBox="0 0 1.421 1.421"><metadata id="metadata38"/><g id="layer1" transform="translate(0.05960665,-288.59358)"><g id="use18" transform="matrix(0.00172838,0,0,-0.0015338,0.65072341,289.30392)" style="fill:#333;stroke:red;stroke-width:.98215002"><g style="clip-rule:evenodd" id="g3838"><path style="clip-rule:evenodd;fill:none;fill-rule:evenodd;stroke:#71c7ff;stroke-width:191.28674316;stroke-linecap:butt;stroke-linejoin:miter;stroke-miterlimit:4;stroke-dasharray:none;stroke-opacity:1" id="path4743-7" d="m 491.62632,-416.88979 c -43.1129,0 -97.09677,87.78058 -97.09677,87.78058 0,0 -119.28905,-87.78058 -161.58071,-87.78058 -42.29182,0 -92.16964,87.78058 -92.16964,87.78058 0,0 -120.931702,-87.78058 -164.044622,-87.78058 -43.112928,0 -94.633048,87.78058 -94.633048,87.78058 0,0 -118.46802,-87.78058 -161.58096,-87.78058 -43.11293,0 -97.09667,87.78058 -97.09667,87.78058 0,0 -91.94865,-88.06853 -135.02538,-86.68862 -37.68315,1.20716 -117.24242,127.01503 -117.24242,127.01503" clip-path="none"/><g id="g4162" transform="matrix(0.92900719,0.14588654,-0.09169444,1.1369171,21.027059,-136.15221)" style="fill:#ff4343;fill-opacity:1"><g id="g4666" transform="matrix(0.86313882,-0.22943906,0.21454484,0.8594656,-13.863256,-6.6037461)" style="fill:#ff4343;fill-opacity:1"><path id="path4784" d="m -225.65118,350.71007 74.6156,134.87678 358.42899,6.34459 44.27098,-130.91714" style="fill:none;fill-opacity:1;fill-rule:evenodd;stroke:#000;stroke-width:39.46901703px;stroke-linecap:butt;stroke-linejoin:miter;stroke-opacity:1"/><path style="fill:#ff4343;fill-opacity:1;fill-rule:evenodd;stroke:#000;stroke-width:42.6890831;stroke-linecap:butt;stroke-linejoin:miter;stroke-miterlimit:4;stroke-dasharray:none;stroke-opacity:1" id="path4264" d="m -328.28905,-178.41724 -8.91787,515.57719 709.43922,10.11847 -1.05788,-431.419517"/><path id="path4786" d="m -340.79444,148.39838 711.01438,2.71817" style="fill:#ff4343;fill-opacity:1;fill-rule:evenodd;stroke:#000;stroke-width:44.59524155px;stroke-linecap:butt;stroke-linejoin:miter;stroke-opacity:1"/><rect id="rect4792-6" width="61.999" height="87.344" x="154.814" y="-190.913" transform="matrix(0.99999518,-0.003106,-0.00876227,-0.99996161,0,0)" style="clip-rule:evenodd;opacity:1;fill:#ff4343;fill-opacity:1;stroke:#000;stroke-width:35.57452011;stroke-linecap:butt;stroke-linejoin:miter;stroke-miterlimit:4;stroke-dasharray:none;stroke-dashoffset:0;stroke-opacity:1"/><rect id="rect4792-6-5" width="61.999" height="87.344" x="-158.425" y="-185.94" transform="matrix(0.99999518,-0.00310606,-0.00876208,-0.99996161,0,0)" style="clip-rule:evenodd;opacity:1;fill:#ff4343;fill-opacity:1;stroke:#000;stroke-width:35.57452011;stroke-linecap:butt;stroke-linejoin:miter;stroke-miterlimit:4;stroke-dasharray:none;stroke-dashoffset:0;stroke-opacity:1"/></g></g><path style="fill:none;fill-rule:evenodd;stroke:#0077e2;stroke-width:77.03359985;stroke-linecap:butt;stroke-linejoin:miter;stroke-miterlimit:4;stroke-dasharray:none;stroke-opacity:1" id="path4743" d="m 498.43666,-318.278 c -43.11295,0 -97.09683,87.78061 -97.09683,87.78061 0,0 -119.2891,-87.78061 -161.58072,-87.78061 -42.29184,0 -92.16967,87.78061 -92.16967,87.78061 0,0 -120.931687,-87.78061 -164.044613,-87.78061 -43.112936,0 -94.633077,87.78061 -94.633077,87.78061 0,0 -118.46806,-87.78061 -161.58099,-87.78061 -43.11295,0 -97.09668,87.78061 -97.09668,87.78061 0,0 -91.94865,-88.06855 -135.0254,-86.68863 -37.68315,1.20717 -117.24243,127.01501 -117.24243,127.01501" clip-path="none"/></g></g></g></svg>