<svg xmlns="http://www.w3.org/2000/svg" xmlns:xlink="http://www.w3.org/1999/xlink" id="svg4375" width="22" height="22" version="1.0"><defs id="defs4377"><linearGradient id="linearGradient6388"><stop id="stop6390" offset="0" style="stop-color:#a00"/><stop id="stop6392" offset="1" style="stop-color:#a00;stop-opacity:0"/></linearGradient><linearGradient id="linearGradient5560" x1="21.866" x2="21.78" y1="8.576" y2="39.924" gradientTransform="matrix(.63636 0 0 .62295 -3.9091 -3.1066)" gradientUnits="userSpaceOnUse"><stop id="stop2783" offset="0" style="stop-color:#505050"/><stop id="stop6301" offset=".132" style="stop-color:#6e6e6e"/><stop id="stop2785" offset="1" style="stop-color:#8c8c8c"/></linearGradient><linearGradient id="linearGradient5563" x1="16.034" x2="16.075" y1="9.073" y2="15.044" gradientTransform="matrix(.61291 0 0 .58621 -3.3226 -2.069)" gradientUnits="userSpaceOnUse"><stop id="stop3692" offset="0" style="stop-color:#fff"/><stop id="stop3694" offset="1" style="stop-color:#fff;stop-opacity:.46875"/></linearGradient><linearGradient id="linearGradient5566" x1="24" x2="24" y1="13" y2="40" gradientTransform="matrix(.52632 0 0 .48148 -.63158 1.7407)" gradientUnits="userSpaceOnUse"><stop id="stop6459" offset="0" style="stop-color:#fff;stop-opacity:.94118"/><stop id="stop6461" offset="1" style="stop-color:#fff;stop-opacity:.70588"/></linearGradient><linearGradient id="linearGradient5568" x1="41.115" x2="33.25" y1="14.885" y2="22.839" gradientTransform="matrix(0 -1 1 0 -13.121 48.879)" gradientUnits="userSpaceOnUse" xlink:href="#linearGradient6388"/><linearGradient id="linearGradient5570" x1="40.738" x2="33.25" y1="15.194" y2="22.839" gradientTransform="matrix(0 1 1 0 -13.121 -19.879)" gradientUnits="userSpaceOnUse" xlink:href="#linearGradient6388"/><linearGradient id="linearGradient5572" x1="41.012" x2="33.25" y1="14.953" y2="22.839" gradientTransform="matrix(0 -1 -1 0 37.121 48.879)" gradientUnits="userSpaceOnUse" xlink:href="#linearGradient6388"/><linearGradient id="linearGradient5574" x1="40.909" x2="33.25" y1="15.056" y2="22.839" gradientTransform="matrix(0 1 -1 0 37.121 -19.879)" gradientUnits="userSpaceOnUse" xlink:href="#linearGradient6388"/></defs><g id="g5548" transform="translate(-1 -1)"><rect id="rect1887" width="21" height="19" x="1.5" y="2.5" rx="1" ry="1" style="stroke:#565853;stroke-width:.99995;fill:url(#linearGradient5560)"/><rect id="rect2779" width="19" height="17" x="2.5" y="3.5" rx=".5" ry=".5" style="opacity:.2;stroke:url(#linearGradient5563);stroke-width:.99994;fill:none"/><rect id="rect6287" width="20" height="13" x="2" y="8" rx=".5" ry=".5" style="fill:url(#linearGradient5566)"/><path id="path6293" d="m21 5c0 0.5522-0.448 1-1 1s-1-0.4478-1-1 0.448-1 1-1c0.55245 0 1.0002 0.44779 1 1z" style="fill:#ffc24c"/><path id="path6622" d="m18 5c0.000238 0.55221-0.44755 1-1 1-0.55246 0-1.0002-0.44779-1-1-0.000241-0.55221 0.44754-1 1-1 0.55245 0 1.0002 0.44779 1 1z" style="fill:#ffc24c"/><path id="path6630" d="m15 5c0.000238 0.55221-0.44755 1-1 1-0.55246 0-1.0002-0.44779-1-1-0.000241-0.55221 0.44754-1 1-1 0.55245 0 1.0002 0.44779 1 1z" style="fill:#ffc24c"/><path id="rect5590" d="m3 13.243 1.4142-1.415 1.4142 1.415 1.4142-1.415-1.4142-1.414 1.4142-1.414h-4.2426v4.243z" style="fill:url(#linearGradient5568)"/><path id="path6641" d="m3 15.757 1.4142 1.415 1.4142-1.415 1.4142 1.415-1.4142 1.414 1.4142 1.414h-4.2426v-4.243z" style="fill:url(#linearGradient5570)"/><path id="path6645" d="m21 13.243-1.414-1.415-1.414 1.415-1.415-1.415 1.415-1.414-1.415-1.414h4.243v4.2426z" style="fill:url(#linearGradient5572)"/><path id="path6649" d="m21 15.757-1.4142 1.4142-1.4142-1.4142-1.4142 1.4142 1.4142 1.4142l-1.415 1.415h4.243v-4.243z" style="fill:url(#linearGradient5574)"/></g></svg>