<svg xmlns="http://www.w3.org/2000/svg" xmlns:svg="http://www.w3.org/2000/svg" id="svg2" width="22" height="22" preserveAspectRatio="xMidYMid meet" version="1.0" viewBox="0 0 17.6 17.6"><metadata id="metadata4">Created by potrace 1.11, written by Peter Selinger 2001-2013</metadata><path style="line-height:normal;font-family:'Bitstream Vera Sans';-inkscape-font-specification:'Bitstream Vera Sans';text-indent:0;text-align:start;text-transform:none;block-progression:tb;overflow:visible;fill:#fff;fill-opacity:1;stroke:#000;stroke-width:.62420827;stroke-opacity:1;enable-background:accumulate" id="path4" d="m 3.959366,0.37715855 a 0.3578125,0.3578125 0 0 0 -0.3578125,0.35781251 0.3578125,0.3578125 0 0 0 0.00156,0.03125 0.39961847,0.39961847 0 0 0 0,0.001563 0.39961847,0.39961847 0 0 0 -0.00156,0.0109375 0.39961847,0.39961847 0 0 0 0,0.0359375 0.39961847,0.39961847 0 0 0 0,0.0140625 0.39961847,0.39961847 0 0 0 0,0.0125 0.39961847,0.39961847 0 0 0 0,0.0625 l 0,13.12187444 a 0.39961847,0.39961847 0 0 0 0.675,0.289063 l 2.8953125,-2.721875 2.3359378,5.393749 a 0.39961847,0.39961847 0 0 0 0.5375002,0.198438 l 1.746874,-0.798438 a 0.39961847,0.39961847 0 0 0 0.2,-0.523437 l -2.4343742,-5.320312 4.0703122,-0.35 a 0.39961847,0.39961847 0 0 0 0.2375,-0.6984374 L 4.3390535,0.61622106 a 0.39961847,0.39961847 0 0 0 -0.0625,-0.0625 0.39961847,0.39961847 0 0 0 -0.026562,-0.028125 0.3578125,0.3578125 0 0 0 -0.00156,0 A 0.3578125,0.3578125 0 0 0 3.959366,0.37715855 Z"/></svg>