<svg xmlns="http://www.w3.org/2000/svg" xmlns:svg="http://www.w3.org/2000/svg" id="svg2" width="22" height="22" preserveAspectRatio="xMidYMid meet" version="1.0" viewBox="0 0 17.6 17.6"><defs id="defs12"><linearGradient id="linearGradient2395" x1="18.037" x2="18.037" y1="14.511" y2="43.878" gradientTransform="matrix(0.3608068,0,0,0.31393635,-2.1784132,-0.29902998)" gradientUnits="userSpaceOnUse"><stop id="stop2266" offset="0" style="stop-color:#d7e866"/><stop id="stop2268" offset="1" style="stop-color:#8cab2a"/></linearGradient><linearGradient id="linearGradient2392" x1="34.404" x2="13.759" y1="14.66" y2="46.874" gradientTransform="matrix(0.30016815,0,0,0.28595857,-0.3497084,0.29843031)" gradientUnits="userSpaceOnUse"><stop id="stop4224" offset="0" style="stop-color:#fff"/><stop id="stop4226" offset="1" style="stop-color:#fff;stop-opacity:0"/></linearGradient><linearGradient id="linearGradient2395-3" x1="18.037" x2="18.037" y1="14.511" y2="43.878" gradientTransform="matrix(0.61021244,0,0,0.51936283,-21.290976,-16.216856)" gradientUnits="userSpaceOnUse"><stop id="stop2266-6" offset="0" style="stop-color:#d7e866"/><stop id="stop2268-7" offset="1" style="stop-color:#8cab2a"/></linearGradient><linearGradient id="linearGradient2392-5" x1="34.404" x2="13.759" y1="14.66" y2="46.874" gradientTransform="matrix(0.50765768,0,0,0.47307759,-18.198189,-15.228443)" gradientUnits="userSpaceOnUse"><stop id="stop4224-3" offset="0" style="stop-color:#fff"/><stop id="stop4226-5" offset="1" style="stop-color:#fff;stop-opacity:0"/></linearGradient><linearGradient id="linearGradient2395-3-3" x1="18.037" x2="18.037" y1="14.511" y2="43.878" gradientTransform="matrix(0.61021244,0,0,0.51936283,-21.273636,-8.4108414)" gradientUnits="userSpaceOnUse"><stop id="stop2266-6-6" offset="0" style="stop-color:#d7e866"/><stop id="stop2268-7-7" offset="1" style="stop-color:#8cab2a"/></linearGradient><linearGradient id="linearGradient2392-5-5" x1="34.404" x2="13.759" y1="14.66" y2="46.874" gradientTransform="matrix(0.50765768,0,0,0.47307759,-18.180849,-7.4224284)" gradientUnits="userSpaceOnUse"><stop id="stop4224-3-3" offset="0" style="stop-color:#fff"/><stop id="stop4226-5-5" offset="1" style="stop-color:#fff;stop-opacity:0"/></linearGradient></defs><metadata id="metadata4">Created by potrace 1.11, written by Peter Selinger 2001-2013</metadata><path style="line-height:normal;font-family:'Bitstream Vera Sans';-inkscape-font-specification:'Bitstream Vera Sans';text-indent:0;text-align:start;text-transform:none;block-progression:tb;overflow:visible;fill:#fff;fill-opacity:1;stroke:#000;stroke-width:.62420827;stroke-opacity:1;enable-background:accumulate" id="path4" d="m 0.69426686,0.37716024 a 0.3578125,0.3578125 0 0 0 -0.3578125,0.3578125 0.3578125,0.3578125 0 0 0 0.00156,0.03125 0.39961847,0.39961847 0 0 0 0,0.00156 0.39961847,0.39961847 0 0 0 -0.00156,0.010937 0.39961847,0.39961847 0 0 0 0,0.035938 0.39961847,0.39961847 0 0 0 0,0.014062 0.39961847,0.39961847 0 0 0 0,0.0125 0.39961847,0.39961847 0 0 0 0,0.0625 l 0,13.12187426 a 0.39961847,0.39961847 0 0 0 0.67499984,0.289063 l 2.8953123,-2.721875 2.3359378,5.393748 a 0.39961847,0.39961847 0 0 0 0.5375005,0.198439 l 1.746874,-0.798439 a 0.39961847,0.39961847 0 0 0 0.2,-0.523436 l -2.4343745,-5.320312 4.0703117,-0.35 a 0.39961847,0.39961847 0 0 0 0.2375,-0.6984376 L 1.0739542,0.61622274 a 0.39961847,0.39961847 0 0 0 -0.0625,-0.0625 0.39961847,0.39961847 0 0 0 -0.026562,-0.028125 0.3578125,0.3578125 0 0 0 -0.00156,0 0.3578125,0.3578125 0 0 0 -0.28906537,-0.1484376 z"/><g id="layer1" transform="matrix(0.55353833,0,0,0.58990746,9.2700106,4.0807403)"><path id="path3375" d="m 1.5,14.5 0,-13 13,6.5 -13,6.5 z" style="fill:url(#linearGradient2395-3-3);fill-rule:evenodd;stroke:#548820;stroke-linecap:round;stroke-linejoin:round"/><path id="path2294" d="M 2.5,12.878 2.5,3.1 12.341,8 2.5,12.878 Z" style="opacity:.41000001;fill:none;stroke:url(#linearGradient2392-5-5);stroke-linecap:round"/></g></svg>