<svg xmlns="http://www.w3.org/2000/svg" xmlns:svg="http://www.w3.org/2000/svg" xmlns:xlink="http://www.w3.org/1999/xlink" id="svg16168" width="22" height="22" version="1.1" viewBox="0 0 22 22" xml:space="preserve"><defs id="defs16234"><radialGradient id="radialGradient6719" cx="605.71" cy="486.65" r="117.14" gradientTransform="matrix(-5.587696,0,0,4.0730444,2246.0302,-308.07462)" gradientUnits="userSpaceOnUse" xlink:href="#linearGradient5060"/><linearGradient id="linearGradient5060"><stop id="stop5062" offset="0" style="stop-color:black"/><stop id="stop5064" offset="1" style="stop-color:black;stop-opacity:0"/></linearGradient><radialGradient id="radialGradient6717" cx="605.71" cy="486.65" r="117.14" gradientTransform="matrix(5.587696,0,0,4.0730444,-1790.7901,-308.07462)" gradientUnits="userSpaceOnUse" xlink:href="#linearGradient5060"/><linearGradient id="linearGradient6715" x1="302.86" x2="302.86" y1="366.65" y2="609.51" gradientTransform="matrix(5.587696,0,0,4.0730444,-1791.9986,-308.07462)" gradientUnits="userSpaceOnUse"><stop id="stop5050" offset="0" style="stop-color:black;stop-opacity:0"/><stop id="stop5056" offset=".5" style="stop-color:black"/><stop id="stop5052" offset="1" style="stop-color:black;stop-opacity:0"/></linearGradient><linearGradient id="linearGradient7671" x1="21.933" x2="21.933" y1="24.627" y2="7.109" gradientTransform="matrix(2.2134076,0,0,-1.6496482,-3.8564269,82.901592)" gradientUnits="userSpaceOnUse"><stop id="stop7650" offset="0" style="stop-color:#8595bc"/><stop id="stop7652" offset="1" style="stop-color:#041a3b"/></linearGradient><linearGradient id="linearGradient7673" x1="21.933" x2="21.933" y1="24.627" y2="7.109" gradientTransform="matrix(2.2134076,0,0,2.2884897,-3.8564269,-4.4578402)" gradientUnits="userSpaceOnUse"><stop id="stop16199" offset="0" style="stop-color:#d0d6e5;stroke-width:1.2167"/><stop id="stop16201" offset="1" style="stop-color:#093a80;stroke-width:1.2167"/></linearGradient><linearGradient id="linearGradient8148" x1="12.487" x2="31.081" y1="3.732" y2="36.033" gradientTransform="matrix(1.434,0,0,0.99009,52.286378,5.1263289)" gradientUnits="userSpaceOnUse"><stop id="stop16177" offset="0" style="stop-color:#d2d2d2;stroke-width:1.2167"/><stop id="stop16179" offset="1" style="stop-color:#ededed;stroke-width:1.2167"/></linearGradient><radialGradient id="radialGradient8161" cx="12.7" cy="10.405" r="19.969" gradientTransform="matrix(1.7105,0,0,1.1248,-11.60362,4.0900289)" gradientUnits="userSpaceOnUse"><stop id="stop8157" offset="0" style="stop-color:#fff"/><stop id="stop8159" offset="1" style="stop-color:#fff;stop-opacity:0"/></radialGradient><linearGradient id="linearGradient8166" x1="33.396" x2="34.17" y1="36.921" y2="38.07" gradientTransform="translate(5.1119795,-1.1223716)" gradientUnits="userSpaceOnUse"><stop id="stop2253" offset="0" style="stop-color:#fff"/><stop id="stop2255" offset="1" style="stop-color:#fff;stop-opacity:0"/></linearGradient><linearGradient id="linearGradient8169" x1="35.997" x2="33.665" y1="40.458" y2="37.771" gradientTransform="translate(5.1119795,-0.74737173)" gradientUnits="userSpaceOnUse"><stop id="stop2226" offset="0" style="stop-color:#7c7c7c"/><stop id="stop2228" offset="1" style="stop-color:#b8b8b8"/></linearGradient><linearGradient id="linearGradient8177" x1="42.188" x2="45" y1="31" y2="39.985" gradientTransform="translate(-0.03561996,2.2874287)" gradientUnits="userSpaceOnUse"><stop id="stop8173" offset="0" style="stop-color:#bbbdba"/><stop id="stop8175" offset="1" style="stop-color:#70746e"/></linearGradient></defs><g id="g4189" transform="translate(0.03561996,-2.2874287)"><g id="g6707" transform="matrix(0.01079979,0,0,0.01205745,20.57036,18.049257)"><rect style="color:#000;opacity:.40206;fill:url(#linearGradient6715)" id="rect6709" width="1339.6" height="478.36" x="-1559.3" y="-150.7"/><path style="color:#000;opacity:.40206;fill:url(#radialGradient6717)" id="path6711" d="m -219.62,-150.68 0,478.33 c 142.88,0.9 345.4,-107.17 345.4,-239.2 0,-132.02 -159.44,-239.13 -345.4,-239.13 z"/><path style="color:#000;opacity:.40206;fill:url(#radialGradient6719)" id="path6713" d="m -1559.3,-150.68 0,478.33 c -142.8,0.9 -345.4,-107.17 -345.4,-239.2 0,-132.02 159.5,-239.13 345.4,-239.13 z"/></g><path style="color:#000;fill:url(#linearGradient8148);stroke:#bbbfbb;stroke-width:.49001414" id="rect7603" d="m 0.86240796,4.8199615 20.18947704,0 c 0.309331,0 0.558584,0.2426191 0.558584,0.5440431 l 0,11.5583814 c 0,0.301279 -4.199066,3.87794 -4.508397,3.87794 l -16.23966404,0 c -0.30957938,0 -0.55868318,-0.242763 -0.55868318,-0.544043 l 0,-14.8922784 c 0,-0.3015208 0.2491038,-0.5441398 0.55858418,-0.5441398 z"/><g id="g7654" transform="matrix(0.52372876,0,0,0.50777374,-0.89152169,3.8673779)"><path style="fill:url(#linearGradient7671)" id="path7644" d="m 5.5127,30 34.13,0 0,-10.373 -34.13,0 L 5.5124,30 Z"/><path style="fill:url(#linearGradient7673)" id="path16203" d="m 5.5127,5.2378 34.13,0 0,14.389 -34.13,0 -3e-4,-14.389 z"/><g style="stroke:#000;stroke-width:1.15610003" id="g16205" transform="matrix(1.1892,0,0,1.1892,-3.5254,-6.5354)"><g id="g16207"><path style="opacity:.05;fill:#e8f52f" id="path16209" d="m 18.4,15.4 c 0,2.2 -1.8,4.1 -4.1,4.1 -2.2,0 -4.1,-1.8 -4.1,-4.1 0,-2.2 1.8,-4.1 4.1,-4.1 2.2,0 4.1,1.8 4.1,4.1 z"/><path style="opacity:.2083;fill:#ecf751" id="path16211" d="m 18,15.4 c 0,2 -1.6,3.7 -3.7,3.7 -2,0 -3.7,-1.6 -3.7,-3.7 0,-2 1.6,-3.7 3.7,-3.7 2,0 3.7,1.6 3.7,3.7 z"/><path style="opacity:.3667;fill:#f0f972" id="path16213" d="m 17.6,15.4 c 0,1.8 -1.5,3.3 -3.3,3.3 -1.8,0 -3.3,-1.5 -3.3,-3.3 0,-1.8 1.5,-3.3 3.3,-3.3 1.8,0 3.3,1.5 3.3,3.3 z"/><path style="opacity:.525;fill:#f4fa95" id="path16215" d="m 17.2,15.4 c 0,1.6 -1.3,2.9 -2.9,2.9 -1.6,0 -2.9,-1.3 -2.9,-2.9 0,-1.6 1.3,-2.9 2.9,-2.9 1.6,0 2.9,1.3 2.9,2.9 z"/><path style="opacity:.6833;fill:#f7fcb7" id="path16217" d="m 16.8,15.4 c 0,1.4 -1.1,2.5 -2.5,2.5 -1.4,0 -2.5,-1.1 -2.5,-2.5 0,-1.4 1.1,-2.5 2.5,-2.5 1.4,0 2.5,1.1 2.5,2.5 z"/><path style="opacity:.8417;fill:#fbfddb" id="path16219" d="m 16.4,15.4 c 0,1.2 -1,2.1 -2.1,2.1 -1.1,0 -2.1,-1 -2.1,-2.1 0,-1.1 1,-2.1 2.1,-2.1 1.1,0 2.1,1 2.1,2.1 z"/><path style="fill:#fff" id="path16221" d="m 16,15.4 c 0,1 -0.8,1.8 -1.8,1.8 -1,0 -1.8,-0.8 -1.8,-1.8 0,-1 0.8,-1.8 1.8,-1.8 1,0 1.8,0.8 1.8,1.8 z"/></g></g><path style="opacity:.3" id="path16223" d="m 25.016,21.649 8.681,0 1.665,0.476 -2.854,0 c 0,0 2.854,0.238 4.281,2.021 1.427,1.665 -1.665,3.687 -1.665,3.687 -0.119,-0.357 -0.832,-3.211 -2.259,-4.4 -1.071,-0.952 -2.26,-1.189 -2.26,-1.189 l -5.589,0 0,-0.476 0,-0.119 z"/><path style="opacity:.3" id="path16225" d="m 30.724,22.363 -4.995,0 9.276,5.232 -4.281,-5.232 z"/><path style="fill:#515151" id="path16227" d="m 25.016,21.768 8.681,0 1.308,-0.832 -2.854,0 c 0,0 2.616,-0.476 2.973,-3.449 0.357,-2.973 -4.043,-6.303 -4.043,-6.303 l 0,0.119 c 0.119,0.713 1.308,5.708 0.476,7.611 -0.357,1.665 -1.428,2.022 -1.428,2.022 l -5.47,0 0.238,0.832 0.119,0 z"/><path style="fill:#515151" id="path16229" d="m 30.248,20.46 -4.994,0 5.946,-9.038 -0.952,9.038 z"/></g><path style="color:#000;fill:none;stroke:#fff;stroke-width:.49001414" id="rect7675" d="m 0.90530751,5.3026365 20.07428349,0 c 0.07447,0 0.134556,0.058515 0.134556,0.1312476 l 0,11.4606949 c 0,0.45748 -3.526777,3.422395 -3.601752,3.422395 l -16.60708749,0 c -0.0745254,0 -0.13465599,-0.05851 -0.13465599,-0.131054 l 0,-14.7520359 c 0,-0.072588 0.0601245,-0.1311021 0.13475499,-0.1311021 z"/><rect style="color:#000;opacity:.84658999;fill:none;stroke:#4f4f4f;stroke-width:.49001414" id="rect8163" width="17.409" height="12.12" x="2.244" y="6.776"/><path style="color:#000;fill:url(#linearGradient8169);fill-rule:evenodd;stroke:url(#linearGradient8177);stroke-width:.49001414" id="path2210" d="m 16.99393,20.785432 c 1.007934,0.159585 4.760628,-2.190681 4.609686,-4.109582 -0.77606,1.171748 -2.362439,0.622385 -4.402638,0.699277 0,0 0.196126,3.168508 -0.207048,3.410305 z"/><path style="color:#000;opacity:.36932002;fill:none;stroke:url(#linearGradient8166);stroke-width:.49001414" id="path2247" d="m 17.713883,19.725393 c 0.680232,-0.330777 2.198588,-1.037792 2.844063,-1.947433 -0.792445,0.328844 -1.463739,0.101072 -2.83165,0.09188 0,0 0.08094,1.480764 -0.01241,1.855549 z"/><path style="color:#000;opacity:.30114004;fill:url(#radialGradient8161)" id="rect8150" d="m 1.0335581,5.5672109 0,10.6690521 C 12.118853,16.666178 13.358166,9.9195572 20.863554,9.9195572 l 0,-4.3523463 -19.8299959,0 z"/></g><metadata id="metadata61"/></svg>