<svg xmlns="http://www.w3.org/2000/svg" xmlns:svg="http://www.w3.org/2000/svg" id="svg3844" width="22" height="22" version="1.1" viewBox="0 0 22 22"><defs id="defs3848"><linearGradient id="linearGradient4421" x1="55" x2="115" y1="156" y2="196" gradientTransform="matrix(8.4623226,0,0,8.7104945,-314.07845,-201.28831)" gradientUnits="userSpaceOnUse"><stop id="stop4377" offset="0" style="stop-color:#dd0"/><stop id="stop4379" offset="1" style="stop-color:#a8a800"/></linearGradient><radialGradient id="radialGradient4423" cx="50" cy="205.65" r="32.768" gradientTransform="matrix(16.785864,-1.3291343,0.51988278,6.9595109,-837.17691,184.77823)" gradientUnits="userSpaceOnUse"><stop id="stop4393" offset="0" style="stop-color:#000"/><stop id="stop4395" offset="1" style="stop-color:#191919"/></radialGradient><linearGradient id="linearGradient4425" x1="60" x2="165" y1="96" y2="96" gradientTransform="matrix(8.4623226,0,0,8.7104945,-314.07845,-201.28831)" gradientUnits="userSpaceOnUse"><stop id="stop4407" offset="0" style="stop-color:#fff;stop-opacity:.098039"/><stop id="stop4409" offset="1" style="stop-color:#fff;stop-opacity:.19608"/></linearGradient></defs><g id="g4415" transform="matrix(0.11817087,0,0,0.11480405,-2.8850772,-2.8912901)"><path id="rect3854" d="m 160,26 35,35 -80,135 c -5,-1 -59,-38 -60,-40 z" style="fill:url(#linearGradient4421)"/><path id="rect4385" d="m 55,156 60,40 c 0,0 -20,-5 -40,10 -6.6667,5 -29.287,2.1458 -25,-5 15,-25 5,-45 5,-45 z" style="fill:url(#radialGradient4423)"/><path id="rect4388" d="m 50,201 25,5 -10,10 -25,0 z" style="fill:red"/><path id="path4399" d="m 160,31 5,5 c 0,0 -90,115 -95,125 0,0 -10,0 -10,-5 z" style="fill:url(#linearGradient4425)"/></g><metadata id="metadata20"/></svg>