<svg xmlns="http://www.w3.org/2000/svg" xmlns:svg="http://www.w3.org/2000/svg" id="svg2" width="22" height="22" version="1.1"><metadata id="metadata7"/><g id="layer1" transform="translate(0,-1030.3622)"><g style="font-size:28px;font-style:normal;font-variant:normal;font-weight:400;font-stretch:normal;text-align:start;line-height:125%;letter-spacing:0;word-spacing:0;writing-mode:lr-tb;text-anchor:start;fill:#5b5b5b;fill-opacity:1;stroke:#313131;font-family:URW Bookman L;-inkscape-font-specification:URW Bookman L;stroke-width:1;stroke-miterlimit:1;stroke-dasharray:none;stroke-opacity:1;stroke-linejoin:round;stroke-linecap:round" id="text2985"><path style="line-height:125%;font-family:URW Bookman L;-inkscape-font-specification:URW Bookman L;fill:#5b5b5b;fill-opacity:1;stroke-width:1;stroke-miterlimit:1;stroke-dasharray:none;stroke:#313131;stroke-opacity:1;stroke-linejoin:round;stroke-linecap:round" id="path3006" d="m 19.480701,1032.2986 -16.2399995,0 -1.596,4.928 0.924,0.336 c 1.6519983,-2.912 3.5840026,-4.2 6.16,-4.2 0.9239991,0 1.232,0.28 1.232,1.12 l 0,12.852 c 0,2.268 -0.4200014,2.968 -1.82,3.08 l -1.092,0.084 0,0.868 8.6239995,0 0,-0.868 -1.092,-0.084 c -1.399998,-0.112 -1.82,-0.812 -1.82,-3.08 l 0,-12.74 c 0,-0.98 0.224001,-1.232 1.148,-1.232 2.463998,0 4.592002,1.456 6.16,4.2 l 0.98,-0.336 -1.568,-4.928"/></g><flowRoot id="flowRoot2989" xml:space="preserve" style="fill:#000;stroke:none;stroke-opacity:1;stroke-width:1px;stroke-linejoin:miter;stroke-linecap:butt;fill-opacity:1;font-family:Bitstream Vera Sans;font-style:normal;font-weight:400;font-size:40px;line-height:125%;letter-spacing:0;word-spacing:0"><flowRegion id="flowRegion2991"><rect id="rect2993" width="387.5" height="400" x="-3.125" y="-921.75"/></flowRegion><flowPara id="flowPara2995"/></flowRoot><flowRoot id="flowRoot2997" xml:space="preserve" style="fill:#000;stroke:none;stroke-opacity:1;stroke-width:1px;stroke-linejoin:miter;stroke-linecap:butt;fill-opacity:1;font-family:Bitstream Vera Sans;font-style:normal;font-weight:400;font-size:40px;line-height:125%;letter-spacing:0;word-spacing:0"><flowRegion id="flowRegion2999"><rect id="rect3001" width="50.195" height="41.016" x="-11.719" y="-5.148"/></flowRegion><flowPara id="flowPara3003"/></flowRoot></g></svg>